<svg width="38" height="48" viewBox="0 0 38 48" fill="none" xmlns="http://www.w3.org/2000/svg">
<path fill-rule="evenodd" clip-rule="evenodd" d="M22.1667 6.96339C22.1667 9.07333 20.7488 10.7838 19 10.7838C17.2511 10.7838 15.8334 9.07333 15.8334 6.96339C15.8334 4.85346 19 0.596069 19 0.596069C19 0.596069 22.1667 4.85346 22.1667 6.96339ZM0.73002 28.3929L3.67272 30.8163L6.37401 45.8803C6.5398 46.8047 7.17949 47.4596 7.91678 47.4596H30.0833C30.8204 47.4596 31.4603 46.8047 31.626 45.8803L34.3273 30.8163L37.2699 28.3929C38.0065 27.7863 38.2215 26.5261 37.75 25.5782C37.2786 24.6305 36.2995 24.3538 35.563 24.9604L34.7156 25.6585C34.1852 20.8147 30.9539 16.8964 26.872 16.8964H20.5833V14.8589C20.5833 13.7336 19.8745 12.8213 19 12.8213C18.1256 12.8213 17.4167 13.7336 17.4167 14.8589V16.8964H11.1281C7.04605 16.8964 3.81488 20.8147 3.2845 25.6585L2.437 24.9604C1.70049 24.3538 0.721301 24.6305 0.24993 25.5782C-0.221441 26.5261 -0.0064973 27.7863 0.73002 28.3929ZM9.17633 43.3845L7.3677 33.2986C9.53406 34.0503 11.8908 33.5945 13.8207 31.9388L16.3652 29.756C17.9607 28.3871 20.0393 28.3871 21.6348 29.756L24.1792 31.9388C26.1091 33.5945 28.4659 34.0503 30.6323 33.2986L28.8237 43.3845H9.17633ZM26.872 20.9715C29.8796 20.9715 32.1175 24.5168 31.5298 28.2822L31.1311 28.6107C29.5432 29.9184 27.5045 29.8939 25.9358 28.5481L23.3914 26.3653C20.7322 24.0839 17.2679 24.0839 14.6087 26.3653L12.0642 28.5481C10.4955 29.8939 8.45687 29.9184 6.86893 28.6107L6.47018 28.2822C5.88255 24.5168 8.12038 20.9715 11.1281 20.9715H19H26.872ZM14.2501 37.2719C14.2501 36.1465 13.5412 35.2343 12.6668 35.2343C11.7924 35.2343 11.0835 36.1465 11.0835 37.2719V39.3094C11.0835 40.4347 11.7924 41.3469 12.6668 41.3469C13.5412 41.3469 14.2501 40.4347 14.2501 39.3094V37.2719ZM20.5833 37.2719C20.5833 36.1465 19.8745 35.2343 19 35.2343C18.1256 35.2343 17.4167 36.1465 17.4167 37.2719V39.3094C17.4167 40.4347 18.1256 41.3469 19 41.3469C19.8745 41.3469 20.5833 40.4347 20.5833 39.3094V37.2719ZM26.9166 37.2719C26.9166 36.1465 26.2078 35.2343 25.3333 35.2343C24.4588 35.2343 23.75 36.1465 23.75 37.2719V39.3094C23.75 40.4347 24.4588 41.3469 25.3333 41.3469C26.2078 41.3469 26.9166 40.4347 26.9166 39.3094V37.2719Z" fill="#4B58A0"/>
</svg>
