<svg width="28" height="27" viewBox="0 0 28 27" fill="none" xmlns="http://www.w3.org/2000/svg">
<path d="M13.9999 2.14273C12.6331 2.14273 11.4676 3.03558 11.0357 4.28536C10.8428 4.84324 10.2443 5.13565 9.69879 4.93847C9.15327 4.74128 8.86735 4.12919 9.06017 3.57132C9.77875 1.49218 11.7176 0 13.9999 0C16.2824 0 18.2212 1.49218 18.9399 3.57132C19.1326 4.12919 18.8467 4.74128 18.3012 4.93847C17.7556 5.13565 17.1571 4.84324 16.9643 4.28536C16.5324 3.03558 15.3667 2.14273 13.9999 2.14273Z" fill="#D8644B"/>
<path d="M0 6C0 5.44772 0.50822 5 1.13513 5H26.8649C27.4918 5 28 5.44772 28 6C28 6.55228 27.4918 7 26.8649 7H1.13513C0.50822 7 0 6.55228 0 6Z" fill="#D8644B"/>
<path d="M5.17343 9.90018C5.13347 9.36879 4.61508 8.96675 4.01558 9.00217C3.41607 9.03759 2.96248 9.49708 3.00245 10.0285L3.6747 18.9664C3.79871 20.6157 3.89889 21.9478 4.13383 22.9932C4.3781 24.08 4.79356 24.9879 5.6517 25.6994C6.50983 26.411 7.55937 26.718 8.79907 26.8618C9.99147 27 11.4978 27 13.3626 27H14.6374C16.5022 27 18.0084 27 19.2009 26.8618C20.4405 26.718 21.4902 26.411 22.3483 25.6994C23.2064 24.9879 23.6219 24.08 23.8661 22.9932C24.101 21.9478 24.2012 20.6157 24.3252 18.9664L24.9976 10.0285C25.0374 9.49708 24.5839 9.03759 23.9844 9.00217C23.3848 8.96675 22.8664 9.36879 22.8265 9.90018L22.1593 18.7704C22.029 20.5034 21.936 21.7092 21.7322 22.6164C21.5344 23.4964 21.2584 23.9622 20.8618 24.2911C20.4652 24.6199 19.9224 24.8332 18.9186 24.9495C17.8838 25.0695 16.5203 25.0714 14.5609 25.0714H13.4391C11.4797 25.0714 10.1161 25.0695 9.08129 24.9495C8.07751 24.8332 7.53478 24.6199 7.13817 24.2911C6.74158 23.9622 6.4655 23.4964 6.26772 22.6164C6.06382 21.7092 5.97094 20.5034 5.84061 18.7704L5.17343 9.90018Z" fill="#D8644B"/>
<path d="M10.0131 11.0052C10.6313 10.9482 11.1824 11.3645 11.2444 11.9353L11.9943 18.8582C12.0561 19.4288 11.6051 19.9377 10.9869 19.9948C10.3687 20.0518 9.81742 19.6355 9.75561 19.0647L9.00567 12.1418C8.94384 11.5712 9.39487 11.0623 10.0131 11.0052Z" fill="#D8644B"/>
<path d="M18.9943 12.1418C19.0561 11.5712 18.6051 11.0623 17.9869 11.0052C17.3688 10.9482 16.8174 11.3645 16.7556 11.9353L16.0057 18.8582C15.9439 19.4288 16.3949 19.9377 17.0131 19.9948C17.6312 20.0518 18.1824 19.6355 18.2444 19.0647L18.9943 12.1418Z" fill="#D8644B"/>
</svg>
