<svg width="33" height="16" viewBox="0 0 33 16" fill="none" xmlns="http://www.w3.org/2000/svg">
<path d="M31.1883 0.398839L23.6899 7.4005C19.8231 11.0111 13.8132 10.9852 9.97766 7.34152L2.54758 0.283077C2.15292 -0.0924354 1.50938 -0.0943494 1.11117 0.277336C0.712961 0.649022 0.710422 1.2551 1.10508 1.62966L15.9334 15.7164C16.1188 15.8924 16.3575 15.9857 16.5998 15.9982C16.6429 16.0005 16.6861 15.9998 16.729 15.9967C16.7833 15.9928 16.8374 15.9977 16.8918 15.9986C17.1681 16.0125 17.45 15.9211 17.6613 15.7231L32.6181 1.7569C33.0169 1.38522 33.0194 0.779614 32.6242 0.404101C32.2291 0.0285888 31.586 0.0266746 31.1883 0.398839Z" fill="#4B58A0"/>
</svg>
