<svg width="27" height="30" viewBox="0 0 27 30" fill="none" xmlns="http://www.w3.org/2000/svg">
<path fill-rule="evenodd" clip-rule="evenodd" d="M25.5942 1.30681C24.026 -0.435597 21.4836 -0.435612 19.9154 1.30681L17.6669 3.80509L7.08462 15.5632C6.91307 15.7538 6.79139 15.9927 6.73255 16.2541L5.39403 22.2031C5.27999 22.71 5.41364 23.2461 5.7461 23.6154C6.07856 23.9848 6.56108 24.1334 7.01722 24.0067L12.3712 22.5195C12.6067 22.454 12.8215 22.3188 12.9931 22.1282L23.4984 10.4556L25.8238 7.87182C27.3921 6.12941 27.3921 3.30439 25.8238 1.56198L25.5942 1.30681ZM21.8083 3.41009C22.331 2.82929 23.1785 2.82929 23.7012 3.41009L23.9309 3.66526C24.4536 4.24607 24.4536 5.18775 23.9309 5.76855L22.5703 7.28036L20.4884 4.87669L21.8083 3.41009ZM18.5951 6.98035L20.677 9.38402L11.3624 19.7337L8.53219 20.5199L9.23972 17.3752L18.5951 6.98035ZM2.67703 9.17864C2.67703 8.35726 3.27631 7.69139 4.01555 7.69139H10.7081C11.4474 7.69139 12.0466 7.02554 12.0466 6.20415C12.0466 5.38277 11.4474 4.7169 10.7081 4.7169H4.01555C1.79783 4.7169 0 6.71449 0 9.17864V25.5383C0 28.0025 1.79783 30 4.01555 30H18.7392C20.957 30 22.7548 28.0025 22.7548 25.5383V18.102C22.7548 17.2808 22.1555 16.6148 21.4162 16.6148C20.677 16.6148 20.0777 17.2808 20.0777 18.102V25.5383C20.0777 26.3597 19.4785 27.0255 18.7392 27.0255H4.01555C3.27631 27.0255 2.67703 26.3597 2.67703 25.5383V9.17864Z" fill="#3E7D0D"/>
</svg>
