<svg width="45" height="35" viewBox="0 0 45 35" fill="none" xmlns="http://www.w3.org/2000/svg">
<path d="M41.6638 19.8066C43.7212 17.923 45.0013 15.3012 45 12.4249C45.0013 9.54856 43.7212 6.92671 41.6638 5.04364C39.6089 3.15757 36.7486 1.98455 33.6086 1.98633C30.4699 1.98455 27.6083 3.15765 25.5547 5.04364C23.4961 6.92671 22.216 9.54856 22.2173 12.4249C22.216 15.3012 23.4961 17.9229 25.5547 19.8066C27.2568 21.3688 29.5131 22.439 32.022 22.7605V27.0491H26.8554V29.9589H32.022V34.5543H35.1967V29.9589H40.3632V27.0491H35.1967V22.7605C37.7055 22.439 39.9617 21.3688 41.6638 19.8066ZM33.6086 19.0814C32.6004 19.0807 31.6499 18.8951 30.7816 18.5589C29.4809 18.0552 28.3675 17.2083 27.5839 16.1451C26.8015 15.0808 26.3461 13.8101 26.3461 12.4249C26.3461 11.5004 26.5487 10.6299 26.9156 9.83482C27.4645 8.64228 28.3881 7.62267 29.549 6.90444C30.7111 6.18687 32.0975 5.76955 33.6086 5.76834C34.6168 5.76898 35.5672 5.95469 36.4356 6.29146C37.7363 6.79451 38.8496 7.64145 39.6333 8.70462C40.4157 9.76965 40.8711 11.0402 40.8723 12.4249C40.8711 13.3494 40.6684 14.2198 40.3016 15.0151C39.7526 16.2075 38.8278 17.2278 37.6682 17.9454C36.5061 18.6635 35.1209 19.0802 33.6086 19.0814Z" fill="#4B58A0"/>
<path d="M12.978 13.1219V5.95342L16.1309 8.8421L18.3768 6.78506L11.3914 0.383057L4.40467 6.78506L6.64936 8.8421L9.80341 5.95285V13.1219C7.29449 13.4439 5.03832 14.5142 3.33621 16.0769C1.27756 17.96 -0.00123585 20.5812 8.96248e-07 23.4576C-0.00123585 26.3351 1.27756 28.9563 3.33621 30.8393C5.39106 32.7259 8.25138 33.8984 11.3914 33.8973C14.5301 33.8984 17.3905 32.7259 19.4452 30.8393C21.5039 28.9562 22.7827 26.335 22.7827 23.4576C22.7827 20.5813 21.5039 17.96 19.4452 16.077C17.7432 14.5143 15.487 13.4439 12.978 13.1219ZM18.0844 26.0483C17.5341 27.2407 16.6106 28.2604 15.451 28.9787C14.289 29.6969 12.9024 30.1142 11.3914 30.1142C10.3819 30.1142 9.43274 29.9285 8.56437 29.5923C7.26375 29.088 6.15033 28.2417 5.36668 27.1785C4.58293 26.1135 4.12763 24.8435 4.12763 23.4577C4.12763 22.5338 4.33028 21.6634 4.69707 20.8682C5.24733 19.6763 6.17091 18.6561 7.33169 17.9378C8.49246 17.2203 9.87902 16.8036 11.3913 16.8024C12.3995 16.8024 13.3486 16.9881 14.2183 17.3249C15.5177 17.8286 16.631 18.6748 17.4148 19.738C18.1984 20.803 18.6538 22.073 18.6538 23.4577C18.6539 24.3826 18.4512 25.2536 18.0844 26.0483Z" fill="#4B58A0"/>
</svg>
