<svg width="51" height="37" viewBox="0 0 51 37" fill="none" xmlns="http://www.w3.org/2000/svg">
<path d="M49.5618 10.5744L26.3297 0.395564C25.7213 0.126283 25.0575 0.126283 24.5043 0.395564L1.27223 10.5744C0.553145 10.9514 0 11.6515 0 12.5132C0 13.321 0.553145 14.075 1.32755 14.452L3.31887 15.3675V22.9074C3.31887 23.6614 3.92733 24.2538 4.70174 24.2538C5.47614 24.2538 6.0846 23.6614 6.0846 22.9074V16.7678L9.40347 18.4912V27.6467C9.40347 28.0237 9.5141 28.3469 9.73536 28.67C9.95662 28.9931 14.9902 36.3176 25.1681 36.3176C35.6226 36.3176 40.4349 28.9393 40.6562 28.67C40.8221 28.4007 40.9881 28.0237 40.9881 27.7006V18.7605L49.7831 14.3981C50.5575 14.0211 51 13.2672 51 12.4593C50.8894 11.6515 50.3362 10.9514 49.5618 10.5744ZM37.0607 27.0543C35.9544 28.3469 32.1931 32.5476 25.1681 32.5476C18.3091 32.5476 14.3818 28.4007 13.2755 27.0543V20.3762L24.449 25.9233C24.7809 26.0849 25.1128 26.1388 25.4447 26.1388C25.7766 26.1388 26.1638 26.0849 26.4957 25.9233L37.0607 20.6993V27.0543ZM25.4447 21.6149L7.30152 12.6747L25.4447 4.70405L43.5879 12.6747L25.4447 21.6149ZM6.0846 26.0849C6.4718 26.4619 6.74837 27.0543 6.74837 27.5929C6.74837 28.1314 6.52712 28.7239 6.0846 29.1008C5.6974 29.4778 5.08894 29.7471 4.53579 29.7471C3.98265 29.7471 3.37419 29.5317 2.98698 29.1008C2.59978 28.7239 2.32321 28.1314 2.32321 27.5929C2.32321 27.0543 2.54447 26.4619 2.98698 26.0849C3.37419 25.7079 3.98265 25.4386 4.53579 25.4386C5.08894 25.4386 5.64208 25.6541 6.0846 26.0849Z" fill="#4B58A0"/>
</svg>
