<svg width="42" height="38" viewBox="0 0 42 38" fill="none" xmlns="http://www.w3.org/2000/svg">
<path d="M41.6458 35.7087L34.4572 16.7427C33.9523 15.4949 32.8223 14.7236 31.5241 14.7236C30.2258 14.7236 29.1198 15.4949 28.5669 16.7881L21.4023 35.7087C21.0657 36.5934 21.5466 37.569 22.4842 37.8866C23.4218 38.2042 24.4557 37.7504 24.7923 36.8657L26.2829 32.9409H36.7412L38.2318 36.8657C38.4963 37.569 39.1935 38 39.9388 38C40.1312 38 40.3475 37.9773 40.5399 37.9093C41.4775 37.5916 41.9584 36.6161 41.6218 35.7313L41.6458 35.7087ZM27.6052 29.5152L31.5481 19.1021L35.491 29.5152H27.6052ZM21.4744 9.57373C16.0409 17.6728 11.1363 22.5731 5.17383 25.84C4.88532 25.9988 4.57278 26.0669 4.28427 26.0669C3.65917 26.0669 3.05812 25.7719 2.72153 25.2275C2.21664 24.4107 2.50515 23.3672 3.37067 22.9134C8.4195 20.1457 12.5548 16.1755 17.1949 9.59642H2.07239C1.08666 9.59642 0.269226 8.82508 0.269226 7.89493C0.269226 6.96478 1.08666 6.19343 2.07239 6.19343H11.0882V1.70149C11.0882 0.771343 11.9056 0 12.8914 0C13.8771 0 14.6945 0.771343 14.6945 1.70149V6.19343H23.7104C24.6961 6.19343 25.5135 6.96478 25.5135 7.89493C25.5135 8.82508 24.6961 9.59642 23.7104 9.59642H21.4504L21.4744 9.57373ZM21.5706 26.0669C21.2581 26.0669 20.9455 25.9988 20.657 25.84C19.0943 24.9779 17.5796 24.0251 16.1611 23.0269C15.3677 22.4597 15.1994 21.3934 15.8005 20.6448C16.4015 19.8961 17.5315 19.7373 18.3249 20.3045C19.6232 21.2346 21.0417 22.0967 22.4842 22.8907C23.3497 23.3672 23.6382 24.4107 23.1333 25.2275C22.7968 25.7719 22.1957 26.0669 21.5706 26.0669Z" fill="white"/>
</svg>
