<svg width="43" height="43" viewBox="0 0 43 43" fill="none" xmlns="http://www.w3.org/2000/svg">
<g filter="url(#filter0_d_17_113)">
<path d="M23.3872 10.5736L25.9064 13.0931C27.0638 14.2505 27.982 15.6246 28.6083 17.1369C29.2347 18.6491 29.5571 20.27 29.5571 21.9069C29.5571 23.5438 29.2347 25.1646 28.6083 26.6769C27.982 28.1892 27.0638 29.5633 25.9064 30.7207L25.2762 31.3492C22.9389 33.6868 19.7688 35 16.4633 35C13.1578 35 9.98774 33.6868 7.65042 31.3492C5.31309 29.0117 4 25.8412 4 22.5354C4 19.2296 5.31309 16.0592 7.65042 13.7216L10.1697 16.2411C9.3371 17.0665 8.67574 18.0482 8.22357 19.1299C7.7714 20.2116 7.53731 21.372 7.53474 22.5444C7.53218 23.7168 7.76118 24.8782 8.20861 25.9618C8.65604 27.0455 9.31309 28.0301 10.142 28.8591C10.971 29.6881 11.9555 30.3453 13.039 30.7927C14.1226 31.2402 15.2838 31.4692 16.4561 31.4667C17.6284 31.4641 18.7887 31.23 19.8702 30.7778C20.9518 30.3256 21.9334 29.6641 22.7587 28.8315L23.389 28.2012C25.0578 26.5317 25.9953 24.2676 25.9953 21.9069C25.9953 19.5462 25.0578 17.2821 23.389 15.6126L20.8697 13.0931L23.389 10.5754L23.3872 10.5736ZM35.3478 21.2766L32.8303 18.7589C33.6629 17.9335 34.3243 16.9518 34.7764 15.8701C35.2286 14.7884 35.4627 13.628 35.4653 12.4556C35.4678 11.2832 35.2388 10.1218 34.7914 9.03816C34.344 7.9545 33.6869 6.96989 32.858 6.14087C32.029 5.31185 31.0445 4.65474 29.961 4.20726C28.8774 3.75978 27.7162 3.53075 26.5439 3.53332C25.3716 3.53589 24.2113 3.77 23.1298 4.22222C22.0482 4.67444 21.0666 5.33586 20.2413 6.1685L19.611 6.79882C17.9422 8.46834 17.0047 10.7324 17.0047 13.0931C17.0047 15.4538 17.9422 17.7179 19.611 19.3874L22.1303 21.9069L19.611 24.4246L17.0936 21.9069C15.9362 20.7495 15.018 19.3754 14.3917 17.8631C13.7653 16.3509 13.4429 14.73 13.4429 13.0931C13.4429 11.4562 13.7653 9.83535 14.3917 8.32307C15.018 6.8108 15.9362 5.43673 17.0936 4.27933L17.7238 3.65079C20.0611 1.31323 23.2312 0 26.5367 0C29.8422 0 33.0123 1.31323 35.3496 3.65079C37.6869 5.98835 39 9.15876 39 12.4646C39 15.7704 37.6869 18.9408 35.3496 21.2784L35.3478 21.2766Z" fill="#4B58A0"/>
</g>
<defs>
<filter id="filter0_d_17_113" x="0" y="0" width="43" height="43" filterUnits="userSpaceOnUse" color-interpolation-filters="sRGB">
<feFlood flood-opacity="0" result="BackgroundImageFix"/>
<feColorMatrix in="SourceAlpha" type="matrix" values="0 0 0 0 0 0 0 0 0 0 0 0 0 0 0 0 0 0 127 0" result="hardAlpha"/>
<feOffset dy="4"/>
<feGaussianBlur stdDeviation="2"/>
<feComposite in2="hardAlpha" operator="out"/>
<feColorMatrix type="matrix" values="0 0 0 0 0 0 0 0 0 0 0 0 0 0 0 0 0 0 0.25 0"/>
<feBlend mode="normal" in2="BackgroundImageFix" result="effect1_dropShadow_17_113"/>
<feBlend mode="normal" in="SourceGraphic" in2="effect1_dropShadow_17_113" result="shape"/>
</filter>
</defs>
</svg>
