<svg width="37" height="39" viewBox="0 0 37 39" fill="none" xmlns="http://www.w3.org/2000/svg">
<path d="M20.1342 13.1788L22.3157 15.4781C23.3179 16.5344 24.1129 17.7884 24.6553 19.1686C25.1977 20.5487 25.4768 22.028 25.4768 23.5219C25.4768 25.0158 25.1977 26.495 24.6553 27.8752C24.1129 29.2553 23.3179 30.5093 22.3157 31.5656L21.7699 32.1393C19.746 34.2726 17.0009 35.4711 14.1387 35.4711C11.2764 35.4711 8.53134 34.2726 6.5074 32.1393C4.48347 30.0059 3.34644 27.1125 3.34644 24.0955C3.34644 21.0785 4.48347 18.1851 6.5074 16.0518L8.68886 18.3511C7.96793 19.1044 7.39525 20.0004 7.00371 20.9875C6.61216 21.9747 6.40946 23.0337 6.40724 24.1037C6.40501 25.1737 6.60332 26.2336 6.99076 27.2226C7.3782 28.2115 7.94714 29.1101 8.66494 29.8667C9.38273 30.6233 10.2352 31.223 11.1735 31.6314C12.1118 32.0398 13.1173 32.2488 14.1324 32.2465C15.1475 32.2441 16.1522 32.0305 17.0888 31.6177C18.0253 31.205 18.8753 30.6014 19.59 29.8415L20.1357 29.2663C21.5808 27.7426 22.3926 25.6763 22.3926 23.5219C22.3926 21.3674 21.5808 19.3012 20.1357 17.7775L17.9543 15.4781L20.1357 13.1804L20.1342 13.1788ZM30.4911 22.9466L28.3112 20.6489C29.0321 19.8956 29.6048 18.9997 29.9963 18.0125C30.3879 17.0253 30.5906 15.9663 30.5928 14.8963C30.595 13.8263 30.3967 12.7664 30.0093 11.7775C29.6219 10.7885 29.0529 9.88989 28.3351 9.13329C27.6173 8.3767 26.7648 7.777 25.8266 7.36862C24.8883 6.96023 23.8827 6.75121 22.8676 6.75356C21.8525 6.7559 20.8478 6.96956 19.9113 7.38227C18.9747 7.79498 18.1247 8.39861 17.4101 9.15851L16.8643 9.73376C15.4192 11.2574 14.6074 13.3237 14.6074 15.4781C14.6074 17.6326 15.4192 19.6988 16.8643 21.2225L19.0458 23.5219L16.8643 25.8196L14.6844 23.5219C13.6822 22.4656 12.8872 21.2116 12.3448 19.8314C11.8024 18.4513 11.5232 16.972 11.5232 15.4781C11.5232 13.9842 11.8024 12.505 12.3448 11.1248C12.8872 9.74469 13.6822 8.49067 14.6844 7.43438L15.2302 6.86076C17.2541 4.72743 19.9991 3.52893 22.8614 3.52893C25.7237 3.52893 28.4687 4.72743 30.4926 6.86076C32.5166 8.9941 33.6536 11.8875 33.6536 14.9045C33.6536 17.9215 32.5166 20.8149 30.4926 22.9483L30.4911 22.9466Z" fill="#4B58A0"/>
</svg>
