<svg width="41" height="49" viewBox="0 0 41 49" fill="none" xmlns="http://www.w3.org/2000/svg">
<path d="M38.8875 18.5078C38.5518 18.8077 38.2006 19.092 37.8302 19.3576C36.973 19.9693 36.5067 20.3053 36.2149 20.5598C37.0703 22.4827 37.5955 24.5863 37.6995 26.8067H31.5351H29.9006H21.3201V16.3504H19.68H13.1546C13.4116 15.7332 13.6866 15.1464 13.982 14.6003C14.8658 12.9591 15.9081 11.6585 17.0192 10.7893C17.1028 10.7239 17.1865 10.6659 17.2701 10.6048C17.7786 10.5088 18.297 10.4414 18.8197 10.3903C18.7894 10.0411 18.7683 9.69072 18.7683 9.33846C18.7683 8.55845 18.8438 7.79647 18.9838 7.05701C13.9311 7.42861 9.37454 9.64456 6.00401 13.039C2.29714 16.7689 -0.00120603 21.9391 5.50653e-07 27.6324C-0.00129884 33.3257 2.29714 38.4958 6.00401 42.2258C9.70839 45.9575 14.844 48.2714 20.5 48.2701C26.156 48.2714 31.2911 45.9575 34.996 42.2258C38.7028 38.4959 41.0006 33.3258 41 27.6324C41.0006 24.3595 40.2376 21.2606 38.8875 18.5078ZM8.32417 15.3747C9.92706 13.7616 11.8421 12.4697 13.9683 11.5912C12.955 12.9118 12.0923 14.5255 11.3918 16.3505H7.43232C7.71846 16.015 8.01324 15.687 8.32417 15.3747ZM6.18184 18.0015H10.8183C10.0101 20.6302 9.53195 23.6231 9.46011 26.8068H3.30064C3.45229 23.5539 4.49162 20.5424 6.18184 18.0015ZM5.51108 36.1626C4.21912 33.8688 3.43132 31.2536 3.30064 28.4578H9.46568C9.52824 31.2081 9.89485 33.8094 10.516 36.1626H5.51108ZM8.32417 39.89C7.68505 39.2465 7.09903 38.5507 6.56646 37.8138H11.006C11.4414 39.1268 11.9499 40.3546 12.5401 41.4514C12.9774 42.2619 13.4568 43.0039 13.9715 43.6754C11.844 42.7968 9.92836 41.5037 8.32417 39.89ZM19.68 44.9467C18.86 44.9081 18.0561 44.8089 17.2707 44.6599C17.1865 44.5988 17.1029 44.5408 17.0192 44.476C15.3513 43.1727 13.8444 40.892 12.781 37.9633C12.7637 37.9148 12.7482 37.8623 12.7302 37.8137H19.68V44.9467ZM19.68 36.1626H12.21C11.5603 33.8493 11.1657 31.2362 11.0995 28.4578H19.68V36.1626ZM19.68 26.8068H11.0939C11.1695 23.5795 11.6928 20.5704 12.5388 18.0015H19.6799V26.8068H19.68ZM21.3201 28.4579H29.9062C29.8411 31.2357 29.4435 33.8494 28.7938 36.1627H21.3201V28.4579ZM23.9809 44.476C23.8979 44.5408 23.8136 44.5988 23.7294 44.6599C22.944 44.8089 22.1401 44.9081 21.3201 44.9467V37.8138H28.2716C27.9037 38.8457 27.4838 39.8021 27.0181 40.6644C26.1343 42.3055 25.0919 43.6055 23.9809 44.476ZM32.6766 39.89C31.0725 41.5031 29.158 42.7956 27.0312 43.6748C28.1163 42.2606 29.0336 40.5174 29.7588 38.532C29.8443 38.2988 29.9211 38.0544 30.0004 37.8137H34.4337C33.901 38.5507 33.3151 39.2465 32.6766 39.89ZM35.489 36.1626H30.4952C31.1145 33.8113 31.4775 31.2057 31.54 28.4578H37.6995C37.5689 31.2537 36.7804 33.8688 35.489 36.1626Z" fill="#4B58A0"/>
<path d="M25.8612 16.6641C27.9465 18.1544 28.4074 18.5091 29.1413 19.9188C29.7217 21.0349 30.6625 22.9915 30.6625 22.9915C30.7071 23.0806 30.7969 23.1374 30.8966 23.1374C30.9951 23.1374 31.0868 23.0806 31.1307 22.9915C31.1307 22.9915 32.0721 21.0349 32.6525 19.9188C33.3851 18.509 33.8466 18.1544 35.9326 16.6641C38.2186 15.0318 39.7459 12.3743 39.7459 9.33849C39.7458 4.41894 35.7832 0.430298 30.8965 0.430298C26.0091 0.430298 22.0484 4.41894 22.0484 9.33849C22.0484 12.3743 23.5746 15.0317 25.8612 16.6641ZM30.8965 5.57055C32.9639 5.57055 34.6399 7.25783 34.6399 9.33849C34.6399 11.4197 32.9639 13.107 30.8965 13.107C28.8291 13.107 27.1537 11.4197 27.1537 9.33849C27.1538 7.25783 28.8291 5.57055 30.8965 5.57055Z" fill="#4B58A0"/>
</svg>
