<svg width="41" height="38" viewBox="0 0 41 38" fill="none" xmlns="http://www.w3.org/2000/svg">
<path d="M19.9182 0C31.355 0 40.6264 8.50659 40.6264 19C40.6264 29.4934 31.355 38 19.9182 38C13.4628 38 7.49564 35.2706 3.59542 30.6935C3.13458 30.1527 3.23883 29.3715 3.82826 28.9487C4.4177 28.5258 5.26911 28.6215 5.72995 29.1623C9.12201 33.1431 14.3055 35.514 19.9182 35.514C29.8586 35.514 37.9169 28.1204 37.9169 19C37.9169 9.87956 29.8586 2.48598 19.9182 2.48598C14.3874 2.48598 9.27146 4.78778 5.87444 8.67035C5.40606 9.20568 4.55337 9.29127 3.96991 8.86153C3.38645 8.43178 3.29317 7.64943 3.76155 7.1141C7.66748 2.64987 13.557 0 19.9182 0ZM21.0196 13.0386L26.4935 18.1811C27.0226 18.6782 27.0326 19.4746 26.5159 19.96L21.1698 24.9825C20.6532 25.4679 19.8054 25.4585 19.2763 24.9614C18.7473 24.4644 18.7373 23.668 19.254 23.1826L22.384 20.2415L1.53247 20.243C0.784272 20.243 0.177734 19.6865 0.177734 19C0.177734 18.3135 0.784272 17.757 1.53247 17.757L22.2991 17.7563L19.1484 14.7964C18.6194 14.2994 18.6094 13.5029 19.1261 13.0175C19.6428 12.5321 20.4905 12.5415 21.0196 13.0386Z" fill="white"/>
</svg>
