<svg width="38" height="35" viewBox="0 0 38 35" fill="none" xmlns="http://www.w3.org/2000/svg">
<path d="M18.6239 13.9727L9.39396 23.0075H14.9687V34.2846H22.4018V23.0075H27.9765L18.6239 13.9727ZM33.5513 0.453369H3.81918C1.77509 0.453369 0.102661 2.14493 0.102661 4.2124V26.7666C0.102661 28.834 1.77509 30.5256 3.81918 30.5256H11.2522V26.7666H3.81918V9.85093H33.5513V26.7666H26.1183V30.5256H33.5513C35.5954 30.5256 37.2678 28.834 37.2678 26.7666V4.2124C37.2678 2.14493 35.5954 0.453369 33.5513 0.453369ZM4.74831 6.56179C4.56529 6.56179 4.38406 6.52533 4.21496 6.45448C4.04587 6.38364 3.89223 6.27981 3.76282 6.14891C3.6334 6.01802 3.53074 5.86262 3.4607 5.6916C3.39066 5.52057 3.35461 5.33727 3.35461 5.15215C3.35461 4.96704 3.39066 4.78373 3.4607 4.61271C3.53074 4.44168 3.6334 4.28629 3.76282 4.15539C3.89223 4.02449 4.04587 3.92066 4.21496 3.84982C4.38406 3.77898 4.56529 3.74252 4.74831 3.74252C5.11794 3.74252 5.47243 3.89103 5.7338 4.15539C5.99517 4.41975 6.142 4.77829 6.142 5.15215C6.142 5.52601 5.99517 5.88456 5.7338 6.14891C5.47243 6.41327 5.11794 6.56179 4.74831 6.56179ZM8.46483 6.56179C8.2818 6.56179 8.10057 6.52533 7.93148 6.45448C7.76239 6.38364 7.60875 6.27981 7.47934 6.14891C7.34992 6.01802 7.24726 5.86262 7.17722 5.6916C7.10718 5.52057 7.07113 5.33727 7.07113 5.15215C7.07113 4.96704 7.10718 4.78373 7.17722 4.61271C7.24726 4.44168 7.34992 4.28629 7.47934 4.15539C7.60875 4.02449 7.76239 3.92066 7.93148 3.84982C8.10057 3.77898 8.2818 3.74252 8.46483 3.74252C8.83446 3.74252 9.18895 3.89103 9.45032 4.15539C9.71169 4.41975 9.85852 4.77829 9.85852 5.15215C9.85852 5.52601 9.71169 5.88456 9.45032 6.14891C9.18895 6.41327 8.83446 6.56179 8.46483 6.56179ZM33.5513 6.09191H11.2522V4.2124H33.5866L33.5513 6.09191Z" fill="#4B58A0"/>
</svg>
