<svg width="41" height="29" viewBox="0 0 41 29" fill="none" xmlns="http://www.w3.org/2000/svg">
<path d="M20.4324 11.5887L10.25 19.3333H16.4V29H24.6V19.3333H30.75L20.4324 11.5887ZM36.9 0H4.1C1.845 0 0 1.45 0 3.22222V22.5556C0 24.3278 1.845 25.7778 4.1 25.7778H12.3V22.5556H4.1V8.05556H36.9V22.5556H28.7V25.7778H36.9C39.155 25.7778 41 24.3278 41 22.5556V3.22222C41 1.45 39.155 0 36.9 0ZM5.125 5.23611C4.92309 5.23611 4.72316 5.20486 4.53662 5.14413C4.35009 5.08341 4.18059 4.9944 4.03782 4.8822C3.89505 4.76999 3.7818 4.63679 3.70454 4.49019C3.62727 4.34359 3.5875 4.18646 3.5875 4.02778C3.5875 3.8691 3.62727 3.71197 3.70454 3.56537C3.7818 3.41877 3.89505 3.28556 4.03782 3.17336C4.18059 3.06115 4.35009 2.97215 4.53662 2.91142C4.72316 2.8507 4.92309 2.81944 5.125 2.81944C5.53277 2.81944 5.92384 2.94675 6.21218 3.17336C6.50051 3.39996 6.6625 3.70731 6.6625 4.02778C6.6625 4.34825 6.50051 4.65559 6.21218 4.8822C5.92384 5.10881 5.53277 5.23611 5.125 5.23611ZM9.225 5.23611C9.02309 5.23611 8.82316 5.20486 8.63662 5.14413C8.45009 5.08341 8.28059 4.9944 8.13782 4.8822C7.99505 4.76999 7.8818 4.63679 7.80453 4.49019C7.72727 4.34359 7.6875 4.18646 7.6875 4.02778C7.6875 3.8691 7.72727 3.71197 7.80453 3.56537C7.8818 3.41877 7.99505 3.28556 8.13782 3.17336C8.28059 3.06115 8.45009 2.97215 8.63662 2.91142C8.82316 2.8507 9.02309 2.81944 9.225 2.81944C9.63277 2.81944 10.0238 2.94675 10.3122 3.17336C10.6005 3.39996 10.7625 3.70731 10.7625 4.02778C10.7625 4.34825 10.6005 4.65559 10.3122 4.8822C10.0238 5.10881 9.63277 5.23611 9.225 5.23611ZM36.9 4.83333H12.3V3.22222H36.9389L36.9 4.83333Z" fill="#4B58A0"/>
</svg>
