<svg width="103" height="94" viewBox="0 0 103 94" fill="none" xmlns="http://www.w3.org/2000/svg">
<path d="M39 38C43.4183 38 47 34.866 47 31C47 27.134 43.4183 24 39 24C34.5817 24 31 27.134 31 31C31 34.866 34.5817 38 39 38Z" fill="#4B58A0"/>
<path fill-rule="evenodd" clip-rule="evenodd" d="M46.3783 1.07517e-06H56.6216C63.7595 -4.59248e-05 69.4363 -4.5523e-05 74.0136 0.346861C78.7017 0.702134 82.696 1.44549 86.3437 3.17494C91.9876 5.85042 96.5891 10.05 99.521 15.2005C101.416 18.5299 102.23 22.1751 102.62 26.4534C103 30.6308 103 35.8115 103 42.3254V51.6741C103 54.9214 103 57.8382 102.953 60.4636C103.025 60.9482 103.014 61.4412 102.921 61.9225C102.866 63.9783 102.775 65.8456 102.62 67.5465C102.23 71.8249 101.416 75.4703 99.521 78.7993C96.5891 83.95 91.9876 88.1494 86.3437 90.8251C82.696 92.5547 78.7017 93.2978 74.0136 93.6531C69.4363 94 63.7595 94 56.6221 94H46.3783C39.2406 94 33.5635 94 28.9862 93.6531C24.2982 93.2978 20.304 92.5547 16.6558 90.8251C12.5596 88.8831 9.01228 86.1383 6.254 82.8098C6.20178 82.7491 6.15136 82.688 6.10274 82.6255C5.12193 81.4219 4.24365 80.143 3.47892 78.7993C1.58388 75.4703 0.769359 71.8249 0.380071 67.5465C-4.98816e-05 63.3692 -5.03218e-05 58.1883 1.17811e-06 51.6741V42.3258C-5.03218e-05 35.8116 -4.98816e-05 30.6309 0.380071 26.4534C0.769359 22.1751 1.58388 18.5299 3.47892 15.2005C6.41056 10.05 11.0122 5.85042 16.6558 3.17494C20.304 1.44549 24.2982 0.702134 28.9862 0.346861C33.5636 -4.5523e-05 39.2403 -4.59248e-05 46.3783 1.07517e-06ZM92.6999 42.535V49.4055L85.5568 42.6055C81.4873 38.7313 74.6955 38.7477 70.6486 42.6417L46.6136 65.7666L38.7041 57.0387C34.4702 52.3669 26.5692 52.5206 22.5574 57.3532L11.2806 70.9362C11.0046 69.7776 10.7947 68.417 10.6447 66.7687C10.3041 63.0256 10.3 58.2353 10.3 51.465V42.535C10.3 35.7646 10.3041 30.9742 10.6447 27.2314C10.9802 23.5449 11.6152 21.2977 12.6193 19.5337C14.5737 16.1 17.6415 13.3003 21.4039 11.5166C23.3368 10.6003 25.7991 10.0208 29.8386 9.71462C33.9397 9.40376 39.1888 9.4 46.6074 9.4H56.3924C63.811 9.4 69.0599 9.40376 73.1613 9.71462C77.201 10.0208 79.6632 10.6003 81.596 11.5166C85.3585 13.3003 88.4264 16.1 90.3808 19.5337C91.3845 21.2977 92.0195 23.5449 92.3553 27.2314C92.6957 30.9742 92.6999 35.7646 92.6999 42.535ZM21.4039 82.4836C19.7862 81.7165 18.2968 80.7615 16.9692 79.6495L30.767 63.0298L38.6767 71.7577C42.6157 76.1043 49.8334 76.328 54.0868 72.2357L78.1218 49.1103L92.5876 62.8822C92.5366 64.3016 92.4624 65.5871 92.3553 66.7687C92.0195 70.4554 91.3845 72.7024 90.3808 74.4663C88.4264 77.9001 85.3585 80.6999 81.596 82.4836C79.6632 83.3996 77.201 83.9791 73.1613 84.2856C69.0599 84.5962 63.811 84.6 56.3924 84.6H46.6074C39.1888 84.6 33.9397 84.5962 29.8386 84.2856C25.7991 83.9791 23.3368 83.3996 21.4039 82.4836Z" fill="#4B58A0"/>
</svg>
